<?xml version="1.0" standalone="no"?>
<!DOCTYPE svg PUBLIC "-//W3C//DTD SVG 20010904//EN"
 "http://www.w3.org/TR/2001/REC-SVG-20010904/DTD/svg10.dtd">
<svg version="1.0" xmlns="http://www.w3.org/2000/svg"
 width="1040.000000pt" height="1040.000000pt" viewBox="0 0 1040.000000 1040.000000"
 preserveAspectRatio="xMidYMid meet">
<metadata>
Created by potrace 1.14, written by Peter Selinger 2001-2017
</metadata>
<g transform="translate(0.000000,1040.000000) scale(0.100000,-0.100000)"
fill="#000000" stroke="none">
<path d="M933 10393 c5 -9 61 -128 117 -248 20 -44 60 -127 87 -185 28 -58 70
-145 93 -195 24 -49 65 -137 93 -195 28 -58 51 -107 52 -110 1 -7 37 -83 104
-225 32 -66 63 -135 70 -152 8 -18 17 -33 22 -33 5 0 8 -3 7 -7 -1 -5 6 -25
15 -47 9 -21 17 -42 17 -47 0 -5 5 -9 10 -9 6 0 10 -6 10 -13 0 -7 10 -33 21
-58 20 -40 60 -123 167 -349 20 -41 36 -77 37 -80 1 -3 23 -50 49 -105 27 -55
66 -138 88 -185 71 -150 119 -253 168 -355 26 -55 61 -129 78 -165 16 -36 52
-112 80 -170 28 -58 66 -139 85 -180 33 -71 61 -132 178 -378 27 -56 49 -107
49 -112 0 -6 5 -10 10 -10 6 0 10 -6 10 -13 0 -7 8 -31 19 -53 19 -39 65 -136
159 -334 27 -58 63 -134 80 -170 17 -36 60 -128 97 -205 37 -77 76 -160 87
-185 12 -25 44 -92 71 -150 57 -117 52 -107 62 -137 4 -13 10 -23 14 -23 4 0
8 -10 8 -22 1 -13 7 -24 13 -26 5 -2 10 -8 10 -12 0 -5 27 -67 61 -137 33 -70
70 -148 81 -173 29 -62 36 -77 48 -97 11 -21 73 -156 75 -163 1 -3 31 -67 68
-144 37 -76 67 -139 67 -141 0 -1 32 -69 71 -151 39 -82 84 -178 100 -212 16
-35 51 -110 78 -165 27 -56 64 -136 84 -177 19 -41 57 -122 84 -180 60 -126
64 -138 54 -144 -4 -3 -16 -27 -26 -53 -23 -61 -53 -133 -65 -155 -6 -10 -10
-23 -10 -28 0 -6 -9 -32 -21 -58 -33 -76 -35 -82 -87 -212 -105 -262 -184
-456 -192 -475 -5 -11 -25 -60 -45 -110 -47 -117 -54 -134 -71 -168 -8 -16
-14 -32 -14 -37 0 -4 -6 -23 -14 -41 -8 -19 -15 -38 -16 -44 -1 -5 -8 -21 -16
-35 -7 -14 -27 -61 -45 -105 -17 -44 -43 -109 -57 -145 -15 -36 -26 -68 -24
-72 1 -5 -2 -8 -8 -8 -5 0 -10 -8 -10 -17 0 -10 -6 -29 -13 -43 -7 -14 -28
-63 -46 -110 -19 -47 -42 -105 -53 -130 -11 -25 -23 -54 -28 -65 -31 -79 -46
-117 -67 -163 -13 -29 -23 -56 -23 -61 0 -5 -11 -33 -23 -62 -29 -66 -40 -92
-41 -99 -1 -3 -16 -40 -34 -82 -17 -42 -32 -81 -32 -87 0 -7 77 -11 238 -10
350 0 334 1 325 -13 -4 -7 -8 -15 -9 -18 -2 -12 -25 -66 -34 -82 -6 -10 -10
-22 -10 -27 0 -5 -12 -35 -27 -67 -14 -33 -28 -68 -30 -78 -2 -11 -7 -24 -12
-30 -7 -10 -54 -122 -57 -136 -1 -6 -20 -54 -39 -95 -7 -16 -27 -66 -45 -110
-18 -44 -35 -84 -38 -90 -4 -5 -7 -15 -8 -21 -1 -6 -9 -27 -17 -45 -9 -19 -18
-44 -22 -56 l-6 -23 1284 0 1285 0 16 40 c9 22 16 42 16 45 0 3 12 31 26 62
14 32 32 74 39 93 7 19 19 49 26 65 7 17 13 32 14 35 1 3 9 22 18 44 9 21 17
45 17 52 0 8 5 14 10 14 6 0 10 6 10 13 0 11 64 175 96 244 7 17 14 33 14 36
0 2 8 22 17 43 9 22 17 41 18 44 1 3 5 14 10 25 5 11 23 56 42 100 18 44 33
85 33 92 0 7 4 13 8 13 5 0 9 6 9 13 1 14 26 80 33 87 3 3 6 10 7 15 1 6 32
82 68 170 37 88 75 183 85 210 10 28 26 68 36 90 10 22 18 42 19 45 1 3 7 18
14 34 6 15 25 63 42 105 43 106 45 112 62 151 45 106 97 238 97 248 0 7 5 12
12 12 6 0 9 3 5 6 -5 5 27 88 69 181 8 17 14 33 14 36 0 3 10 27 22 54 11 26
22 53 24 58 1 6 25 64 52 130 41 101 47 125 38 145 -6 14 -29 66 -51 115 -100
217 -145 320 -143 326 2 4 -4 15 -13 25 -9 11 -20 30 -24 43 -4 13 -20 49 -35
80 -26 51 -27 59 -15 88 7 17 11 34 7 37 -3 3 -1 6 5 6 5 0 15 19 22 42 7 23
19 51 26 62 8 12 14 23 14 26 0 8 12 41 26 75 8 17 23 55 34 85 12 30 26 64
31 75 5 11 36 88 69 170 71 178 66 165 136 335 31 74 57 140 59 145 1 6 10 27
19 49 9 21 17 40 17 41 0 1 8 20 17 41 9 22 18 44 19 49 1 6 10 28 20 50 10
22 18 42 18 45 1 7 144 357 167 407 10 24 19 50 19 58 0 8 5 15 12 15 6 0 9 3
6 6 -5 5 9 46 42 119 5 11 28 67 51 125 22 58 44 110 49 115 5 6 8 13 9 18 0
14 43 122 53 134 6 7 7 13 4 13 -4 0 -1 12 7 28 8 15 27 59 42 97 16 39 34 84
40 100 72 172 148 362 148 373 0 6 4 12 9 12 4 0 7 3 6 8 -1 4 3 18 9 32 34
79 85 206 87 215 2 6 12 30 23 55 11 25 24 56 28 70 4 14 11 30 15 35 4 6 13
28 20 50 12 38 23 64 70 170 11 25 20 49 20 55 0 5 11 33 24 62 14 29 47 109
74 178 28 69 64 159 82 200 17 41 38 95 47 120 8 25 18 50 22 55 4 6 17 35 29
65 12 30 27 69 33 85 7 17 13 32 14 35 1 3 6 16 12 30 37 87 85 207 87 215 1
6 4 15 8 20 6 10 69 164 120 295 16 41 35 89 43 105 17 37 37 87 41 100 3 11
180 449 194 480 24 54 50 118 50 126 0 5 11 32 24 61 13 29 38 89 56 133 35
90 41 105 63 155 9 19 13 38 11 42 -3 4 0 8 5 8 6 0 11 9 11 20 0 11 5 20 10
20 6 0 9 3 8 8 0 4 2 16 7 27 9 25 81 205 97 242 6 15 12 33 14 38 2 10 56
138 79 190 7 17 17 42 20 58 4 15 11 30 16 33 5 3 9 9 9 15 0 5 -489 9 -1287
9 l-1288 -1 -33 -82 c-18 -45 -34 -86 -36 -92 -1 -5 -7 -20 -14 -31 -6 -12 -8
-24 -5 -28 3 -3 1 -6 -5 -6 -7 0 -12 -6 -12 -14 0 -7 -8 -31 -17 -52 -9 -22
-17 -41 -18 -44 -1 -3 -6 -16 -12 -30 -6 -14 -18 -42 -26 -62 -9 -21 -13 -38
-9 -38 4 0 3 -4 -3 -8 -5 -4 -30 -56 -54 -117 -24 -60 -64 -159 -88 -220 -25
-60 -59 -144 -76 -185 -16 -41 -36 -88 -42 -105 -51 -122 -88 -212 -90 -220
-1 -5 -7 -21 -13 -35 -27 -63 -114 -276 -116 -285 -1 -5 -10 -27 -19 -49 -9
-21 -17 -40 -17 -41 0 -1 -8 -20 -17 -41 -9 -22 -18 -43 -19 -49 -3 -11 -128
-317 -143 -350 -8 -17 -20 -48 -26 -65 -1 -3 -7 -17 -13 -31 -5 -14 -58 -144
-117 -289 -59 -145 -112 -275 -117 -289 -6 -14 -12 -29 -13 -33 -2 -5 -4 -10
-5 -13 -1 -3 -3 -8 -4 -12 -1 -5 -4 -12 -8 -18 -3 -5 -25 -57 -48 -115 -23
-58 -47 -116 -53 -130 -5 -14 -11 -28 -12 -32 -2 -5 -4 -10 -5 -13 -1 -3 -3
-8 -5 -12 -1 -5 -6 -19 -12 -33 -6 -14 -32 -77 -57 -140 -26 -63 -54 -129 -61
-147 -8 -17 -15 -34 -15 -37 0 -3 -8 -25 -19 -49 -10 -23 -31 -73 -46 -112
-50 -127 -59 -145 -64 -139 -3 3 -6 9 -7 12 -1 10 -17 46 -68 154 -25 54 -48
109 -52 123 -3 14 -10 25 -15 25 -5 0 -9 7 -9 15 0 8 -9 30 -20 50 -11 19 -20
37 -20 40 -1 7 -32 77 -74 168 -20 42 -36 79 -36 82 0 3 -18 42 -41 88 -22 45
-40 83 -39 85 1 2 -20 49 -71 158 -10 22 -19 46 -19 52 0 7 -4 12 -10 12 -5 0
-10 6 -10 13 0 7 -11 35 -24 63 -13 27 -38 83 -56 124 -18 41 -48 105 -66 143
-18 37 -31 67 -29 67 2 0 -6 21 -20 48 -25 50 -88 184 -90 192 -4 13 -54 124
-110 245 -20 44 -42 94 -50 110 -18 42 -57 126 -99 218 -20 43 -36 80 -36 83
0 2 -15 37 -34 76 -69 147 -124 268 -131 288 -1 3 -12 28 -25 55 -13 28 -24
52 -25 55 0 3 -20 45 -43 94 -23 49 -42 90 -42 92 0 5 -44 101 -97 214 -25 52
-46 100 -47 105 -2 6 -16 39 -33 75 -56 121 -71 155 -74 165 -1 6 -18 40 -36
77 -18 37 -33 69 -33 72 0 2 -16 38 -36 80 l-35 76 -1315 0 c-723 0 -1313 -3
-1311 -7z"/>
</g>
</svg>
