<?xml version="1.0" standalone="no"?>
<!DOCTYPE svg PUBLIC "-//W3C//DTD SVG 20010904//EN"
 "http://www.w3.org/TR/2001/REC-SVG-20010904/DTD/svg10.dtd">
<svg version="1.0" xmlns="http://www.w3.org/2000/svg"
 width="512.000000pt" height="512.000000pt" viewBox="0 0 512.000000 512.000000"
 preserveAspectRatio="xMidYMid meet">
<metadata>
Created by potrace 1.14, written by Peter Selinger 2001-2017
</metadata>
<g transform="translate(0.000000,512.000000) scale(0.100000,-0.100000)"
fill="#000000" stroke="none">
<path d="M1104 4285 c-2 -5 -5 -26 -8 -45 -3 -19 -8 -46 -11 -60 -3 -14 -8
-43 -10 -65 -3 -22 -8 -47 -10 -55 -3 -8 -7 -33 -10 -55 -3 -22 -7 -51 -10
-65 -3 -14 -7 -41 -10 -60 -3 -19 -7 -45 -9 -56 -2 -12 -7 -39 -10 -60 -4 -22
-18 -100 -31 -174 -14 -74 -27 -148 -29 -165 -8 -47 -15 -88 -21 -112 -10 -45
-13 -59 -19 -106 -4 -27 -10 -59 -12 -70 -4 -19 -20 -105 -49 -267 -4 -19 -8
-39 -9 -45 -7 -29 -20 -111 -18 -117 1 -5 -1 -8 -6 -8 -4 0 -8 -13 -8 -28 -1
-16 -9 -67 -19 -113 -9 -46 -19 -97 -22 -114 -2 -16 -13 -73 -23 -125 -25
-122 -30 -149 -36 -185 -3 -16 -7 -39 -9 -50 -14 -65 -24 -114 -28 -140 -3
-16 -21 -109 -41 -205 -19 -96 -37 -186 -40 -200 -2 -14 -12 -58 -20 -97 -9
-40 -18 -86 -21 -101 -4 -24 -22 -119 -41 -212 -3 -14 -16 -75 -29 -137 -14
-61 -26 -122 -29 -135 l-4 -23 254 0 253 0 -1 40 c0 22 1 42 1 45 1 3 4 46 6
95 3 91 5 123 30 428 3 34 7 78 9 97 3 19 8 67 11 105 8 100 14 152 21 215 3
30 7 66 9 80 1 14 6 57 9 95 3 39 8 81 11 95 2 14 7 54 11 90 3 36 7 72 9 81
3 14 7 44 20 159 6 55 17 136 20 161 3 14 7 43 10 65 2 21 7 55 10 74 3 19 7
53 10 75 5 44 14 106 21 145 2 14 7 45 10 70 5 46 10 76 19 119 2 13 7 49 11
80 5 50 18 82 27 70 2 -2 16 -35 32 -74 15 -38 36 -88 46 -110 36 -84 220
-541 224 -556 2 -9 8 -25 14 -35 9 -18 75 -186 142 -364 17 -47 40 -107 51
-135 10 -27 30 -81 44 -120 14 -38 28 -77 31 -85 4 -8 7 -17 8 -20 1 -3 5 -12
8 -20 4 -8 13 -33 21 -55 8 -22 49 -134 91 -250 42 -115 78 -217 80 -225 2 -8
27 -80 56 -160 28 -80 53 -154 56 -165 3 -11 14 -39 24 -62 18 -42 21 -43 67
-44 26 -1 51 0 57 1 5 1 54 1 108 1 92 -1 98 0 107 22 5 12 51 119 101 237 50
118 96 221 101 228 6 6 8 12 5 12 -3 0 11 37 32 83 98 210 111 239 111 242 0
2 25 57 56 122 111 232 127 268 129 273 1 3 40 86 88 184 48 98 87 183 87 187
0 5 5 9 10 9 6 0 10 7 10 15 0 8 13 36 29 63 16 27 31 56 33 63 2 8 46 97 98
199 52 102 97 192 99 200 2 8 6 17 10 20 3 3 42 75 85 160 43 85 82 159 87
164 11 12 21 -42 34 -189 3 -40 10 -109 20 -195 3 -25 7 -69 10 -97 3 -29 8
-77 11 -105 3 -29 7 -73 10 -98 2 -25 6 -72 10 -105 8 -80 12 -128 19 -200 2
-33 7 -80 10 -105 2 -25 7 -74 9 -110 3 -36 8 -96 12 -135 3 -38 7 -88 9 -110
4 -53 14 -167 20 -230 6 -67 15 -176 21 -250 9 -134 13 -183 18 -235 3 -30 8
-91 11 -135 13 -167 14 -186 20 -194 3 -5 20 -5 39 -1 19 4 186 7 370 6 l334
-1 -3 25 c-5 39 -16 122 -21 160 -3 19 -7 51 -9 70 -3 19 -7 53 -10 75 -3 22
-8 58 -10 80 -3 22 -8 56 -10 76 -3 20 -8 59 -11 85 -2 27 -6 60 -9 74 -2 14
-7 50 -10 80 -3 30 -8 66 -10 80 -2 14 -7 50 -11 80 -3 30 -7 66 -9 80 -2 14
-7 54 -10 90 -3 36 -8 76 -11 90 -2 14 -7 50 -10 80 -3 30 -7 69 -9 85 -2 17
-6 55 -10 85 -3 30 -7 73 -10 95 -3 22 -8 60 -10 85 -3 25 -7 63 -10 85 -3 22
-7 61 -10 88 -6 61 -14 130 -21 187 -6 54 -12 118 -18 185 -5 52 -12 117 -21
195 -3 25 -7 63 -10 85 -2 22 -7 74 -11 115 -3 41 -8 83 -10 93 -4 21 -13 108
-19 182 -2 28 -6 70 -9 95 -3 25 -8 70 -11 100 -3 30 -7 73 -10 95 -3 22 -7
69 -10 105 -2 36 -7 81 -9 100 -3 19 -8 64 -10 99 -3 35 -8 67 -12 70 -11 11
-422 8 -436 -4 -7 -5 -110 -203 -228 -440 -117 -236 -220 -437 -226 -445 -7
-8 -13 -18 -13 -23 -1 -12 -120 -248 -132 -263 -6 -8 -10 -14 -7 -14 2 0 -28
-63 -67 -140 -508 -1011 -568 -1128 -581 -1123 -8 3 -14 9 -14 13 0 5 -22 55
-48 112 -27 57 -93 204 -146 328 -53 124 -103 239 -110 255 -8 17 -22 50 -31
75 -10 25 -28 68 -40 95 -12 28 -52 129 -90 225 -37 96 -71 184 -76 195 -44
109 -177 468 -269 730 -16 44 -47 133 -70 197 -23 65 -43 123 -44 130 -1 7 -4
18 -7 23 -4 6 -11 26 -18 45 l-11 35 -251 0 c-165 1 -252 -3 -255 -10z"/>
</g>
</svg>
